HIERARCHY
ROOT Hips
{
  OFFSET 5.72205e-005 65.662 3.42586
  CHANNELS 6 Xposition Yposition Zposition Zrotation Xrotation Yrotation
  JOINT Chest
  {
    OFFSET 0 8.7983 -4.7612
    CHANNELS 3 Zrotation Xrotation Yrotation
    JOINT Chest2
    {
      OFFSET 0 8.0291 0.4195
      CHANNELS 3 Zrotation Xrotation Yrotation
      JOINT Chest3
      {
        OFFSET 0 9.9351 -2.2114
        CHANNELS 3 Zrotation Xrotation Yrotation
        JOINT Neck
        {
          OFFSET 0 22.3885 -0.4656
          CHANNELS 3 Zrotation Xrotation Yrotation
          JOINT Head
          {
            OFFSET -0.0001 12.643 3.4389
            CHANNELS 3 Zrotation Xrotation Yrotation
            End Site
            {
              OFFSET 0.0001 17.6655 0.5274
            }
          }
        }
        JOINT LeftCollar
        {
          OFFSET 2.2603 21.606 7.4023
          CHANNELS 3 Zrotation Xrotation Yrotation
          JOINT LeftShoulder
          {
            OFFSET 13.5163 -1.1332 -5.0146
            CHANNELS 3 Zrotation Xrotation Yrotation
            JOINT LeftElbow
            {
              OFFSET -0.0995 -28.05 -0.2431
              CHANNELS 3 Zrotation Xrotation Yrotation
              JOINT LeftWrist
              {
                OFFSET 0.0679 -23.3996 -0.1402
                CHANNELS 3 Zrotation Xrotation Yrotation
                JOINT LeftFinger1
                {
                  OFFSET 0.7932 -9.069 2.5189
                  CHANNELS 3 Zrotation Xrotation Yrotation
                  JOINT LeftFinger11
                  {
                    OFFSET -0.8272 -3.3923 0.5977
                    CHANNELS 3 Zrotation Xrotation Yrotation
                    JOINT LeftFinger12
                    {
                      OFFSET -0.5649 -2.3158 0.4082
                      CHANNELS 3 Zrotation Xrotation Yrotation
                      End Site
                      {
                        OFFSET -0.4919 -1.6479 0.2673
                      }
                    }
                  }
                }
                JOINT LeftFinger2
                {
                  OFFSET 0.9159 -9.2044 0.2193
                  CHANNELS 3 Zrotation Xrotation Yrotation
                  JOINT LeftFinger21
                  {
                    OFFSET 0.0117 -4.1944 -0.0248
                    CHANNELS 3 Zrotation Xrotation Yrotation
                    JOINT LeftFinger22
                    {
                      OFFSET 0.0071 -2.3249 -0.0142
                      CHANNELS 3 Zrotation Xrotation Yrotation
                      End Site
                      {
                        OFFSET -0.1475 -2.0882 0.0028
                      }
                    }
                  }
                }
                JOINT LeftFinger3
                {
                  OFFSET 0.6113 -8.7231 -2.0637
                  CHANNELS 3 Zrotation Xrotation Yrotation
                  JOINT LeftFinger31
                  {
                    OFFSET -0.1927 -3.8059 -0.2383
                    CHANNELS 3 Zrotation Xrotation Yrotation
                    JOINT LeftFinger32
                    {
                      OFFSET -0.1091 -2.1688 -0.1362
                      CHANNELS 3 Zrotation Xrotation Yrotation
                      End Site
                      {
                        OFFSET -0.2358 -1.9176 -0.0906
                      }
                    }
                  }
                }
                JOINT LeftFinger4
                {
                  OFFSET -0.6151 -8.0947 -3.5641
                  CHANNELS 3 Zrotation Xrotation Yrotation
                  JOINT LeftFinger41
                  {
                    OFFSET -0.4882 -2.341 -0.6462
                    CHANNELS 3 Zrotation Xrotation Yrotation
                    JOINT LeftFinger42
                    {
                      OFFSET -0.3575 -1.7167 -0.4742
                      CHANNELS 3 Zrotation Xrotation Yrotation
                      End Site
                      {
                        OFFSET -0.4187 -1.5237 -0.3496
                      }
                    }
                  }
                }
                JOINT LeftFinger0
                {
                  OFFSET -1.42 -1.8761 1.4223
                  CHANNELS 3 Zrotation Xrotation Yrotation
                  JOINT LeftFinger01
                  {
                    OFFSET -1.1471 -3.4929 2.6334
                    CHANNELS 3 Zrotation Xrotation Yrotation
                    JOINT LeftFinger02
                    {
                      OFFSET -0.823 -2.3 1.6571
                      CHANNELS 3 Zrotation Xrotation Yrotation
                      End Site
                      {
                        OFFSET -0.5822 -1.6914 1.1582
                      }
                    }
                  }
                }
              }
            }
          }
        }
        JOINT RightCollar
        {
          OFFSET -2.2603 21.606 7.4023
          CHANNELS 3 Zrotation Xrotation Yrotation
          JOINT RightShoulder
          {
            OFFSET -13.5187 -1.1334 -5.0155
            CHANNELS 3 Zrotation Xrotation Yrotation
            JOINT RightElbow
            {
              OFFSET 0.0994 -28.0499 -0.2431
              CHANNELS 3 Zrotation Xrotation Yrotation
              JOINT RightWrist
              {
                OFFSET -0.0679 -23.3996 -0.1402
                CHANNELS 3 Zrotation Xrotation Yrotation
                JOINT RightFinger1
                {
                  OFFSET -0.7932 -9.0691 2.5189
                  CHANNELS 3 Zrotation Xrotation Yrotation
                  JOINT RightFinger11
                  {
                    OFFSET 0.8272 -3.3923 0.5977
                    CHANNELS 3 Zrotation Xrotation Yrotation
                    JOINT RightFinger12
                    {
                      OFFSET 0.565 -2.3158 0.4082
                      CHANNELS 3 Zrotation Xrotation Yrotation
                      End Site
                      {
                        OFFSET 0.4919 -1.6479 0.2673
                      }
                    }
                  }
                }
                JOINT RightFinger2
                {
                  OFFSET -0.916 -9.2044 0.2193
                  CHANNELS 3 Zrotation Xrotation Yrotation
                  JOINT RightFinger21
                  {
                    OFFSET -0.0117 -4.1944 -0.0248
                    CHANNELS 3 Zrotation Xrotation Yrotation
                    JOINT RightFinger22
                    {
                      OFFSET -0.0071 -2.3249 -0.0142
                      CHANNELS 3 Zrotation Xrotation Yrotation
                      End Site
                      {
                        OFFSET 0.1475 -2.0882 0.0028
                      }
                    }
                  }
                }
                JOINT RightFinger3
                {
                  OFFSET -0.6113 -8.7231 -2.0637
                  CHANNELS 3 Zrotation Xrotation Yrotation
                  JOINT RightFinger31
                  {
                    OFFSET 0.1927 -3.8059 -0.2383
                    CHANNELS 3 Zrotation Xrotation Yrotation
                    JOINT RightFinger32
                    {
                      OFFSET 0.1091 -2.1688 -0.1362
                      CHANNELS 3 Zrotation Xrotation Yrotation
                      End Site
                      {
                        OFFSET 0.2358 -1.9176 -0.0906
                      }
                    }
                  }
                }
                JOINT RightFinger4
                {
                  OFFSET 0.6151 -8.0947 -3.564
                  CHANNELS 3 Zrotation Xrotation Yrotation
                  JOINT RightFinger41
                  {
                    OFFSET 0.4882 -2.341 -0.6462
                    CHANNELS 3 Zrotation Xrotation Yrotation
                    JOINT RightFinger42
                    {
                      OFFSET 0.3574 -1.7166 -0.4742
                      CHANNELS 3 Zrotation Xrotation Yrotation
                      End Site
                      {
                        OFFSET 0.4187 -1.5237 -0.3496
                      }
                    }
                  }
                }
                JOINT RightFinger0
                {
                  OFFSET 1.4199 -1.8761 1.4221
                  CHANNELS 3 Zrotation Xrotation Yrotation
                  JOINT RightFinger01
                  {
                    OFFSET 1.1472 -3.4929 2.6336
                    CHANNELS 3 Zrotation Xrotation Yrotation
                    JOINT RightFinger02
                    {
                      OFFSET 0.8229 -2.3 1.6571
                      CHANNELS 3 Zrotation Xrotation Yrotation
                      End Site
                      {
                        OFFSET 0.5822 -1.6914 1.1582
                      }
                    }
                  }
                }
              }
            }
          }
        }
      }
    }
  }
  JOINT RightHip
  {
    OFFSET -9.412 3.9771 -0.7758
    CHANNELS 3 Zrotation Xrotation Yrotation
    JOINT RightKnee
    {
      OFFSET -0.7531 -40.938 0
      CHANNELS 3 Zrotation Xrotation Yrotation
      JOINT RightAnkle
      {
        OFFSET 0 -40.1986 0
        CHANNELS 3 Zrotation Xrotation Yrotation
        JOINT RightToe
        {
          OFFSET 0 -4.4182 9.239
          CHANNELS 3 Zrotation Xrotation Yrotation
          End Site
          {
            OFFSET 0 0 6.1981
          }
        }
      }
    }
  }
  JOINT LeftHip
  {
    OFFSET 9.4119 3.9773 -0.7758
    CHANNELS 3 Zrotation Xrotation Yrotation
    JOINT LeftKnee
    {
      OFFSET 0.7532 -40.9383 0
      CHANNELS 3 Zrotation Xrotation Yrotation
      JOINT LeftAnkle
      {
        OFFSET 0 -40.1986 0
        CHANNELS 3 Zrotation Xrotation Yrotation
        JOINT LeftToe
        {
          OFFSET 0 -4.4182 9.239
          CHANNELS 3 Zrotation Xrotation Yrotation
          End Site
          {
            OFFSET 0 0 6.1981
          }
        }
      }
    }
  }
}
MOTION
Frames:	6
Frame Time:	0.0333333
-0.326805 61.7549 8.43866 -2.16854e-009 -4.86679 -3.72107e-010 -0.0075184 4.82837 -0.00281499 -0.0148775 9.65677 -0.0050184 -0.0148775 9.65677 -0.0050184 3.55918e-008 -5.85205 9.87323e-009 -4.29948e-009 -0.267537 -2.33024e-009 -28.7259 -10.005 -12.2483 41.671 -17.1843 -9.72491 -5.6963 -25.2436 17.9326 -6.88328 1.25944 -0.138283 2.38542e-015 3.18055e-015 2.38542e-015 0 0 -0 0 3.18055e-015 -0 2.38542e-015 3.18055e-015 2.38542e-015 -0.0127797 0.00231722 7.73745e-005 0 1.59028e-014 -0 2.38542e-015 3.18055e-015 2.38542e-015 -0.0160357 0.00300249 0.000858498 3.62606e-006 -2.69242e-006 6.25935e-008 2.38542e-015 3.18055e-015 2.38542e-015 -0.0125958 0.00312211 0.00282905 3.97569e-015 6.36111e-015 -0 2.38542e-015 3.18055e-015 2.38542e-015 0 0 -0 0 3.18055e-015 -0 12.0844 14.0215 12.4469 -19.3906 -22.4355 22.5674 12.1844 -44.8185 -13.7598 -19.9095 -3.31435 -2.68388 -7.95139e-016 -6.36111e-015 -0 -1.59028e-015 3.18055e-015 -1.59028e-015 -7.95139e-016 0 -0 -7.95139e-016 -6.36111e-015 -0 0.0129528 0.00230805 -9.11594e-005 6.45199e-006 -1.5059e-008 -2.42854e-006 -7.95139e-016 -6.36111e-015 -0 0.0163093 0.00302868 -0.000870575 4.80882e-006 1.55417e-006 -4.43972e-006 -7.95139e-016 -6.36111e-015 -0 0.0145614 0.00367435 -0.00326182 3.97569e-015 1.59028e-014 -3.18055e-015 -7.95139e-016 -6.36111e-015 -0 -1.59028e-015 3.18055e-015 -1.59028e-015 -7.95139e-016 0 -0 -0.416815 8.88769 -9.84943 2.9982 0.71495 0.56379 9.89079 0.0871651 -6.46027 1.66568e-006 -4.08565e-007 1.77455e-007 12.9747 4.23754 11.968 0.0777868 4.92746 -1.00977 -11.9085 6.13624 7.23799 -8.74763e-008 5.12045e-007 -1.63199e-006 
-0.328095 61.7631 8.51718 -0 -5.0007 -0 0 4.79913 -0 0 9.59824 -0 0 9.59828 -0 -0 -6.00199 -0 -0 -0.267537 -0 -29.0017 -10.0015 -12.5039 41.8216 -16.5112 -9.86369 -5.61282 -25.1383 17.8127 -6.88328 1.25943 -0.138298 3.18055e-015 -1.27222e-014 -0 2.38542e-015 -1.27222e-014 -1.59028e-015 -5.29669e-031 -9.54166e-015 -3.18055e-015 3.18055e-015 -1.27222e-014 -0 -0.012826 0.00232411 8.43798e-005 -2.38542e-015 -6.36111e-015 7.95139e-016 3.18055e-015 -1.27222e-014 -0 -0.0160571 0.00298938 0.000856855 -3.04281e-006 1.0068e-005 5.52079e-006 3.18055e-015 -1.27222e-014 -0 -0.0125889 0.00311564 0.00282742 1.59028e-015 -3.18055e-015 -3.18055e-015 3.18055e-015 -1.27222e-014 -0 2.38542e-015 -1.27222e-014 -1.59028e-015 -5.29669e-031 -9.54166e-015 -3.18055e-015 12.2173 14.4117 12.4653 -19.5287 -22.3914 22.5049 12.3254 -45.2492 -13.4777 -20.6447 -3.41694 -2.79415 1.59028e-015 3.18055e-015 -1.59028e-015 -9.13217e-007 7.06522e-008 -1.39726e-006 -8.2739e-007 -2.84515e-006 -3.08555e-007 1.59028e-015 3.18055e-015 -1.59028e-015 0.0129445 0.00231795 -9.21734e-005 -8.28123e-007 -2.86291e-006 -3.08583e-007 1.59028e-015 3.18055e-015 -1.59028e-015 0.0163444 0.00304253 -0.000878091 0 0 -0 1.59028e-015 3.18055e-015 -1.59028e-015 0.0145934 0.00367929 -0.00326519 -9.13035e-007 7.06141e-008 -1.39734e-006 1.59028e-015 3.18055e-015 -1.59028e-015 -9.13217e-007 7.06522e-008 -1.39726e-006 -8.2739e-007 -2.84515e-006 -3.08555e-007 -0.435292 9.08702 -9.86955 2.99757 0.762276 0.577593 9.88895 -0.0231244 -6.43981 3.08116e-015 3.97569e-016 -6.36111e-015 12.9713 4.38592 11.9868 -0.00278572 4.96176 -1.00918 -11.9266 5.92958 7.15846 2.24246e-007 8.18452e-007 -1.59041e-006 
-0.326805 61.7549 8.43866 -1.17401e-009 -4.86679 -3.87091e-010 -0.0075184 4.82837 -0.002815 -0.0148775 9.65677 -0.0050184 -0.0148775 9.65677 -0.0050184 3.52027e-008 -5.85205 1.14555e-008 -7.35728e-009 -0.267535 -3.91544e-009 -28.7259 -10.005 -12.2483 41.671 -17.1843 -9.7249 -5.69629 -25.2437 17.9325 -6.88326 1.25946 -0.138294 0 0 -0 -7.95139e-016 6.36111e-015 2.38542e-015 -2.38542e-015 -6.36111e-015 7.95139e-016 0 0 -0 -0.0128142 0.00232954 8.38668e-005 -1.76556e-031 -1.27222e-014 -7.95139e-016 0 0 -0 -0.016057 0.00301014 0.000863299 1.59028e-015 0 7.95139e-016 0 0 -0 -0.0126026 0.00311731 0.00283122 -4.41391e-032 3.18055e-015 7.95139e-016 0 0 -0 -7.95139e-016 6.36111e-015 2.38542e-015 -2.38542e-015 -6.36111e-015 7.95139e-016 12.0844 14.0215 12.4469 -19.39 -22.4354 22.5676 12.1839 -44.8184 -13.7598 -19.9095 -3.31435 -2.68386 3.97569e-015 -1.59028e-014 1.59028e-015 7.95139e-016 -1.59028e-014 3.18055e-015 3.97569e-015 -1.27222e-014 -0 3.97569e-015 -1.59028e-014 1.59028e-015 0.0129562 0.00230974 -8.6336e-005 2.38542e-015 0 -3.18055e-015 3.97569e-015 -1.59028e-014 1.59028e-015 0.0163107 0.0030349 -0.000869068 3.97569e-015 3.18055e-015 -1.59028e-015 3.97569e-015 -1.59028e-014 1.59028e-015 0.0145892 0.0036762 -0.00326071 -2.38542e-015 0 -1.59028e-015 3.97569e-015 -1.59028e-014 1.59028e-015 7.95139e-016 -1.59028e-014 3.18055e-015 3.97569e-015 -1.27222e-014 -0 -0.416815 8.88769 -9.84943 2.9982 0.714957 0.56379 9.89079 0.0871577 -6.46027 -8.32838e-007 2.02184e-007 -8.87273e-008 12.9747 4.23754 11.9679 0.0777841 4.92746 -1.00975 -11.9085 6.13624 7.238 -8.74763e-008 5.12045e-007 -1.63199e-006 
-0.324664 61.7412 8.30775 -3.92025e-011 -4.6436 -4.84236e-010 -0.0199909 4.87716 -0.00763231 -0.0395431 9.75432 -0.013624 -0.0395432 9.75434 -0.013624 1.66544e-007 -5.60208 6.66429e-008 -3.16119e-008 -0.267534 -8.01545e-009 -28.2662 -10.0093 -11.8222 41.4228 -18.3075 -9.49334 -5.83541 -25.4193 18.1322 -6.88326 1.25943 -0.138301 -4.41391e-032 -3.18055e-015 -7.95139e-016 1.84724e-006 -2.91823e-006 3.37725e-006 4.41391e-032 -3.18055e-015 7.95139e-016 -4.41391e-032 -3.18055e-015 -7.95139e-016 -0.0128284 0.00232847 8.16849e-005 -2.38542e-015 9.54166e-015 7.95139e-016 -4.41391e-032 -3.18055e-015 -7.95139e-016 -0.0160676 0.00299569 0.000860066 -1.32417e-031 9.54166e-015 7.95139e-016 -4.41391e-032 -3.18055e-015 -7.95139e-016 -0.0125859 0.00312101 0.00283211 -3.97569e-015 0 -1.59028e-015 -4.41391e-032 -3.18055e-015 -7.95139e-016 1.84724e-006 -2.91823e-006 3.37725e-006 4.41391e-032 -3.18055e-015 7.95139e-016 11.8627 13.371 12.4155 -19.16 -22.509 22.6719 11.9568 -44.0994 -14.2232 -18.6837 -3.14044 -2.50299 -3.15635e-006 -2.69999e-006 -8.10516e-007 2.38542e-015 0 -1.59028e-015 8.16968e-006 5.02585e-007 -1.85504e-006 -3.15635e-006 -2.69999e-006 -8.10516e-007 0.0129371 0.00231344 -8.55387e-005 1.76634e-007 1.17297e-007 1.88573e-006 -3.15635e-006 -2.69999e-006 -8.10516e-007 0.0163414 0.00304001 -0.000869948 2.38542e-015 6.36111e-015 -0 -3.15635e-006 -2.69999e-006 -8.10516e-007 0.0145799 0.0036694 -0.00325705 -2.38542e-015 3.18055e-015 -3.18055e-015 -3.15635e-006 -2.69999e-006 -8.10516e-007 2.38542e-015 0 -1.59028e-015 8.16968e-006 5.02585e-007 -1.85504e-006 -0.380336 8.57813 -9.816 2.99771 0.580552 0.540597 9.89416 0.302813 -6.49916 6.77543e-007 -4.95029e-007 3.35929e-006 12.9806 3.98729 11.9366 0.212216 4.87595 -1.01082 -11.8791 6.47792 7.37041 0 4.77083e-015 -0 
-0.322962 61.7304 8.20298 3.70674e-010 -4.46503 -1.36024e-008 -0.0299379 4.91624 -0.0115718 -0.0592039 9.83247 -0.020669 -0.0592041 9.83251 -0.020669 -3.40014e-007 -5.40197 -1.42096e-007 -4.58146e-008 -0.267534 -1.13549e-008 -27.8982 -10.0098 -11.4811 41.2264 -19.2089 -9.31104 -5.94664 -25.5602 18.2917 -6.88327 1.25943 -0.138272 3.97569e-015 -1.59028e-014 -3.97569e-015 5.56597e-015 -9.54166e-015 -3.97569e-015 4.77083e-015 -9.54166e-015 -2.38542e-015 3.97569e-015 -1.59028e-014 -3.97569e-015 -0.0128098 0.00232806 8.34984e-005 2.38542e-015 0 7.95139e-016 3.97569e-015 -1.59028e-014 -3.97569e-015 -0.0160403 0.00299611 0.000856035 0 0 -1.59028e-015 3.97569e-015 -1.59028e-014 -3.97569e-015 -0.012588 0.00312315 0.00282759 -2.64834e-031 6.36111e-015 2.38542e-015 3.97569e-015 -1.59028e-014 -3.97569e-015 5.56597e-015 -9.54166e-015 -3.97569e-015 4.77083e-015 -9.54166e-015 -2.38542e-015 11.6854 12.8504 12.3882 -18.9759 -22.5675 22.7555 11.7832 -43.5228 -14.587 -17.7012 -2.99809 -2.36066 -8.56587e-007 3.8316e-008 -1.42492e-006 -3.97569e-015 0 1.59028e-015 7.02633e-007 -1.585e-007 -4.6239e-007 -8.56587e-007 3.8316e-008 -1.42492e-006 0.0129429 0.00231967 -8.5484e-005 -4.28221e-007 -1.2026e-006 -7.12475e-007 -8.56587e-007 3.8316e-008 -1.42492e-006 0.0163245 0.00303036 -0.000870816 7.95139e-016 3.18055e-015 -3.18055e-015 -8.56587e-007 3.8316e-008 -1.42492e-006 0.0145398 0.00367007 -0.00325556 -8.56397e-007 3.8297e-008 -1.42499e-006 -8.56587e-007 3.8316e-008 -1.42492e-006 -3.97569e-015 0 1.59028e-015 7.02633e-007 -1.585e-007 -4.6239e-007 -0.355016 8.30554 -9.78855 2.99692 0.521333 0.52163 9.89662 0.452367 -6.52683 8.32538e-007 2.3897e-007 8.90578e-008 12.9852 3.78721 11.9115 0.319758 4.83427 -1.01152 -11.8561 6.75172 7.47635 -3.87481e-007 -2.54633e-006 -1.6764e-006 
-0.321259 61.7196 8.09816 -2.59995e-011 -4.28646 -3.47852e-010 -0.0398511 4.95539 -0.0155932 -0.0787873 9.91079 -0.0278689 -0.0787876 9.91081 -0.027869 -2.68214e-007 -5.20196 -1.00926e-007 -3.87703e-008 -0.267529 -7.17679e-009 -27.5301 -10.0083 -11.1399 41.0307 -20.1122 -9.13105 -6.05676 -25.7014 18.4513 -6.88326 1.25945 -0.138274 4.35687e-006 -4.98605e-006 -5.30503e-006 4.41391e-032 -3.18055e-015 7.95139e-016 -1.59028e-015 -3.18055e-015 -0 4.35687e-006 -4.98605e-006 -5.30503e-006 -0.0128273 0.0023255 8.72304e-005 -7.95139e-016 9.54166e-015 7.95139e-016 4.35687e-006 -4.98605e-006 -5.30503e-006 -0.0160718 0.00300283 0.000858445 -3.18055e-015 1.59028e-014 -0 4.35687e-006 -4.98605e-006 -5.30503e-006 -0.0125293 0.00310919 0.00281251 -3.97569e-015 0 -0 4.35687e-006 -4.98605e-006 -5.30503e-006 4.41391e-032 -3.18055e-015 7.95139e-016 -1.59028e-015 -3.18055e-015 -0 11.5082 12.3295 12.3593 -18.7914 -22.6257 22.8395 11.6161 -42.9449 -14.9454 -16.7175 -2.8531 -2.22057 3.18055e-015 -3.18055e-015 -3.18055e-015 -1.59028e-015 2.87218e-006 -1.59028e-015 4.77083e-015 3.18055e-015 -0 3.18055e-015 -3.18055e-015 -3.18055e-015 0.012945 0.00233074 -8.70896e-005 1.30933e-007 1.35312e-006 1.88868e-006 3.18055e-015 -3.18055e-015 -3.18055e-015 0.0163429 0.0030416 -0.000873478 -3.97569e-015 6.36111e-015 -1.59028e-015 3.18055e-015 -3.18055e-015 -3.18055e-015 0.0145878 0.00368277 -0.00326105 -2.91795e-006 4.60272e-006 -3.76636e-009 3.18055e-015 -3.18055e-015 -3.18055e-015 -1.59028e-015 2.87218e-006 -1.59028e-015 4.77083e-015 3.18055e-015 -0 -0.327424 8.04886 -9.76094 2.99673 0.432697 0.503029 9.8992 0.6151 -6.5565 -8.32403e-007 -4.64798e-007 -8.9203e-008 12.9898 3.58665 11.8864 0.427221 4.79389 -1.0122 -11.8335 7.02481 7.58217 3.97569e-016 2.29277e-010 -0 
